<?xml version="1.0" standalone="no"?>
<!DOCTYPE svg PUBLIC "-//W3C//DTD SVG 20010904//EN"
 "http://www.w3.org/TR/2001/REC-SVG-20010904/DTD/svg10.dtd">
<svg version="1.0" xmlns="http://www.w3.org/2000/svg"
 width="300.000000pt" height="236.000000pt" viewBox="0 0 300.000000 236.000000"
 preserveAspectRatio="xMidYMid meet">
<metadata>
Created by potrace 1.10, written by Peter Selinger 2001-2011
</metadata>
<g transform="translate(0.000000,236.000000) scale(0.100000,-0.100000)"
fill="#000000" stroke="none">
<path d="M18 2353 c6 -2 18 -2 25 0 6 3 1 5 -13 5 -14 0 -19 -2 -12 -5z"/>
<path d="M500 2280 l0 -80 -80 0 -79 0 -4 73 c-3 63 -3 60 -4 -23 0 -52 1 -87
4 -77 4 14 17 17 83 17 l79 0 4 -87 c1 -49 4 -10 5 85 1 94 0 172 -3 172 -3 0
-5 -36 -5 -80z"/>
<path d="M834 2190 c0 -96 2 -136 3 -88 l4 87 72 4 72 3 -72 2 -72 2 -4 83
c-1 45 -3 3 -3 -93z"/>
<path d="M1330 2280 l0 -80 -80 0 -79 0 -4 73 -3 72 -2 -72 -2 -72 -72 -4 -73
-3 73 -2 72 -2 0 -85 0 -85 34 0 c19 0 37 4 41 9 3 6 -9 7 -30 4 l-35 -6 0 82
0 81 80 0 79 0 4 -57 c2 -32 4 6 5 85 1 78 0 142 -3 142 -3 0 -5 -36 -5 -80z"/>
<path d="M1664 2235 c0 -71 1 -111 3 -88 l4 42 72 4 72 3 -72 2 -72 2 -4 83
c-2 49 -3 29 -3 -48z"/>
<path d="M1828 2278 c-2 -46 0 -112 3 -148 4 -46 6 -22 7 83 2 158 -4 200 -10
65z"/>
<path d="M2163 2285 c0 -44 2 -61 4 -37 2 23 2 59 0 80 -2 20 -4 1 -4 -43z"/>
<path d="M2494 1775 c0 -324 2 -551 3 -503 l4 87 157 4 157 3 -157 2 -158 2 0
246 0 245 85 -3 85 -3 -2 75 -2 75 -3 -67 -4 -68 -79 0 -80 0 0 160 0 159 73
4 72 3 -72 2 -72 2 -4 83 c-1 45 -3 -183 -3 -508z"/>
<path d="M2955 2354 c6 -2 9 -35 7 -79 l-4 -75 -69 0 c-38 0 -69 -3 -69 -7 0
-5 31 -7 70 -5 l69 4 0 -161 0 -161 -69 0 c-39 0 -70 -3 -70 -7 0 -5 31 -7 70
-5 l69 4 0 -246 0 -245 -72 -4 -72 -3 72 -2 72 -2 0 -160 -1 -159 -71 -4 -72
-3 72 -2 72 -2 -1 -510 c0 -281 2 -514 6 -517 3 -4 8 -4 11 -1 3 2 6 534 7
1181 3 1171 3 1177 -17 1176 -11 0 -15 -2 -10 -5z"/>
<path d="M173 2280 c0 -36 2 -50 4 -32 2 17 2 47 0 65 -2 17 -4 3 -4 -33z"/>
<path d="M663 2300 c0 -25 2 -35 4 -22 2 12 2 32 0 45 -2 12 -4 2 -4 -23z"/>
<path d="M1003 2275 c0 -38 2 -53 4 -32 2 20 2 52 0 70 -2 17 -4 1 -4 -38z"/>
<path d="M2823 2275 c0 -38 2 -53 4 -32 2 20 2 52 0 70 -2 17 -4 1 -4 -38z"/>
<path d="M1993 2270 c0 -36 2 -50 4 -32 2 17 2 47 0 65 -2 17 -4 3 -4 -33z"/>
<path d="M2663 2275 c0 -33 2 -45 4 -27 2 18 2 45 0 60 -2 15 -4 0 -4 -33z"/>
<path d="M2326 2262 c-2 -4 -1 -14 4 -22 7 -11 9 -9 7 8 -1 24 -3 26 -11 14z"/>
<path d="M53 2193 c26 -2 67 -2 90 0 23 2 2 3 -48 3 -50 0 -68 -1 -42 -3z"/>
<path d="M217 2193 c18 -2 50 -2 70 0 21 2 7 4 -32 4 -38 0 -55 -2 -38 -4z"/>
<path d="M593 2193 c42 -2 112 -2 155 0 42 1 7 3 -78 3 -85 0 -120 -2 -77 -3z"/>
<path d="M1377 2193 c18 -2 50 -2 70 0 21 2 7 4 -32 4 -38 0 -55 -2 -38 -4z"/>
<path d="M1528 2193 c23 -2 61 -2 85 0 23 2 4 4 -43 4 -47 0 -66 -2 -42 -4z"/>
<path d="M1877 2193 c18 -2 50 -2 70 0 21 2 7 4 -32 4 -38 0 -55 -2 -38 -4z"/>
<path d="M2072 2193 l87 -4 4 -87 3 -87 2 87 2 87 88 4 c48 1 6 3 -93 3 -99 0
-141 -2 -93 -3z"/>
<path d="M2377 2193 c18 -2 50 -2 70 0 21 2 7 4 -32 4 -38 0 -55 -2 -38 -4z"/>
<path d="M2707 2193 c18 -2 50 -2 70 0 21 2 7 4 -32 4 -38 0 -55 -2 -38 -4z"/>
<path d="M173 2115 c0 -38 2 -53 4 -32 2 20 2 52 0 70 -2 17 -4 1 -4 -38z"/>
<path d="M1003 2110 c0 -36 2 -50 4 -32 2 17 2 47 0 65 -2 17 -4 3 -4 -33z"/>
<path d="M2663 2110 c0 -36 2 -50 4 -32 2 17 2 47 0 65 -2 17 -4 3 -4 -33z"/>
<path d="M2823 2110 c0 -36 2 -50 4 -32 2 17 2 47 0 65 -2 17 -4 3 -4 -33z"/>
<path d="M333 2100 c0 -30 2 -43 4 -27 2 15 2 39 0 55 -2 15 -4 2 -4 -28z"/>
<path d="M1993 2100 c0 -30 2 -43 4 -27 2 15 2 39 0 55 -2 15 -4 2 -4 -28z"/>
<path d="M1490 2130 c0 -5 5 -10 11 -10 5 0 7 5 4 10 -3 6 -8 10 -11 10 -2 0
-4 -4 -4 -10z"/>
<path d="M660 2095 c0 -14 2 -25 4 -25 2 0 6 11 8 25 3 14 1 25 -3 25 -5 0 -9
-11 -9 -25z"/>
<path d="M2325 2080 c-3 -5 -1 -10 4 -10 6 0 11 5 11 10 0 6 -2 10 -4 10 -3 0
-8 -4 -11 -10z"/>
<path d="M1490 2035 c0 -10 9 -15 28 -14 16 1 20 3 10 6 -10 2 -18 9 -18 14 0
5 -4 9 -10 9 -5 0 -10 -7 -10 -15z"/>
<path d="M1660 1881 l0 -174 -22 20 c-24 22 -61 43 -75 43 -4 0 10 -10 32 -23
25 -14 56 -46 83 -86 23 -34 42 -59 42 -53 0 5 -11 26 -25 46 l-24 36 100 0
c65 0 98 4 94 10 -4 6 -11 8 -16 5 -5 -4 -9 3 -9 13 0 11 -8 26 -17 33 -15 11
-16 11 -5 -1 6 -8 12 -22 12 -32 0 -16 -10 -18 -80 -18 l-80 0 0 80 0 80 81 0
81 0 -4 -40 c-2 -22 0 -40 4 -40 5 0 8 20 8 45 l0 45 -85 0 -85 0 0 75 0 75
53 2 52 2 -50 3 c-27 3 -53 10 -57 16 -4 7 -8 -66 -8 -162z"/>
<path d="M155 2030 c-19 -8 -19 -9 3 -9 12 -1 22 4 22 9 0 6 -1 10 -2 9 -2 0
-12 -4 -23 -9z"/>
<path d="M330 2030 c0 -5 5 -10 11 -10 5 0 7 5 4 10 -3 6 -8 10 -11 10 -2 0
-4 -4 -4 -10z"/>
<path d="M660 2030 c0 -5 5 -10 11 -10 5 0 7 5 4 10 -3 6 -8 10 -11 10 -2 0
-4 -4 -4 -10z"/>
<path d="M990 2030 c-13 -8 -12 -10 3 -10 9 0 17 5 17 10 0 12 -1 12 -20 0z"/>
<path d="M1910 2029 c0 -5 11 -9 25 -9 14 0 25 2 25 4 0 2 -11 6 -25 8 -14 3
-25 1 -25 -3z"/>
<path d="M1990 2030 c0 -5 5 -10 11 -10 5 0 7 5 4 10 -3 6 -8 10 -11 10 -2 0
-4 -4 -4 -10z"/>
<path d="M2655 2030 c-3 -5 -1 -10 4 -10 6 0 11 5 11 10 0 6 -2 10 -4 10 -3 0
-8 -4 -11 -10z"/>
<path d="M2820 2030 c0 -5 5 -10 11 -10 5 0 7 5 4 10 -3 6 -8 10 -11 10 -2 0
-4 -4 -4 -10z"/>
<path d="M18 2023 c7 -3 16 -2 19 1 4 3 -2 6 -13 5 -11 0 -14 -3 -6 -6z"/>
<path d="M68 2023 c12 -2 32 -2 45 0 12 2 2 4 -23 4 -25 0 -35 -2 -22 -4z"/>
<path d="M198 2023 c7 -3 16 -2 19 1 4 3 -2 6 -13 5 -11 0 -14 -3 -6 -6z"/>
<path d="M238 2023 c7 -3 16 -2 19 1 4 3 -2 6 -13 5 -11 0 -14 -3 -6 -6z"/>
<path d="M368 2023 c7 -3 16 -2 19 1 4 3 -2 6 -13 5 -11 0 -14 -3 -6 -6z"/>
<path d="M548 2023 c17 -2 47 -2 65 0 17 2 3 4 -33 4 -36 0 -50 -2 -32 -4z"/>
<path d="M717 2023 c18 -2 50 -2 70 0 21 2 7 4 -32 4 -38 0 -55 -2 -38 -4z"/>
<path d="M868 2023 c12 -2 30 -2 40 0 9 3 -1 5 -23 4 -22 0 -30 -2 -17 -4z"/>
<path d="M1038 2023 c6 -2 18 -2 25 0 6 3 1 5 -13 5 -14 0 -19 -2 -12 -5z"/>
<path d="M1403 2023 c15 -2 39 -2 55 0 15 2 2 4 -28 4 -30 0 -43 -2 -27 -4z"/>
<path d="M1563 2023 c9 -2 25 -2 35 0 9 3 1 5 -18 5 -19 0 -27 -2 -17 -5z"/>
<path d="M1628 2023 c7 -3 16 -2 19 1 4 3 -2 6 -13 5 -11 0 -14 -3 -6 -6z"/>
<path d="M2047 2023 c18 -2 50 -2 70 0 21 2 7 4 -32 4 -38 0 -55 -2 -38 -4z"/>
<path d="M2203 2023 c15 -2 37 -2 50 0 12 2 0 4 -28 4 -27 0 -38 -2 -22 -4z"/>
<path d="M2303 2023 c9 -2 23 -2 30 0 6 3 -1 5 -18 5 -16 0 -22 -2 -12 -5z"/>
<path d="M2368 2023 c12 -2 32 -2 45 0 12 2 2 4 -23 4 -25 0 -35 -2 -22 -4z"/>
<path d="M2448 2023 c7 -3 16 -2 19 1 4 3 -2 6 -13 5 -11 0 -14 -3 -6 -6z"/>
<path d="M2543 2023 c9 -2 23 -2 30 0 6 3 -1 5 -18 5 -16 0 -22 -2 -12 -5z"/>
<path d="M2908 2023 c6 -2 18 -2 25 0 6 3 1 5 -13 5 -14 0 -19 -2 -12 -5z"/>
<path d="M173 1945 c0 -38 2 -53 4 -32 2 20 2 52 0 70 -2 17 -4 1 -4 -38z"/>
<path d="M502 1940 c-2 -41 -3 -112 -2 -157 l1 -82 -73 -4 -73 -3 72 -2 72 -2
4 -72 3 -73 2 72 2 72 73 4 72 3 -72 2 -72 2 -4 158 c-1 86 -4 123 -5 82z"/>
<path d="M832 1943 l-2 -72 -72 -4 -73 -3 72 -2 72 -2 4 -87 3 -88 2 87 2 87
73 4 72 3 -72 2 -72 2 -4 73 -3 72 -2 -72z"/>
<path d="M1161 1994 c0 -11 3 -14 6 -6 3 7 2 16 -1 19 -3 4 -6 -2 -5 -13z"/>
<path d="M1328 1933 c-2 -43 -1 -148 2 -233 6 -151 6 -149 8 78 2 227 -3 309
-10 155z"/>
<path d="M1990 1987 c0 -14 5 -29 10 -32 7 -4 8 3 4 22 -9 38 -14 42 -14 10z"/>
<path d="M2158 1938 c-2 -40 0 -118 3 -173 4 -87 5 -78 7 73 2 174 -4 232 -10
100z"/>
<path d="M2823 1945 c0 -38 2 -53 4 -32 2 20 2 52 0 70 -2 17 -4 1 -4 -38z"/>
<path d="M1003 1945 c0 -33 2 -45 4 -27 2 18 2 45 0 60 -2 15 -4 0 -4 -33z"/>
<path d="M1833 1940 c0 -36 2 -50 4 -32 2 17 2 47 0 65 -2 17 -4 3 -4 -33z"/>
<path d="M333 1935 c0 -33 2 -45 4 -27 2 18 2 45 0 60 -2 15 -4 0 -4 -33z"/>
<path d="M1079 1913 l-24 -28 28 24 c25 23 32 31 24 31 -2 0 -14 -12 -28 -27z"/>
<path d="M2050 1900 c6 -11 13 -20 16 -20 2 0 0 9 -6 20 -6 11 -13 20 -16 20
-2 0 0 -9 6 -20z"/>
<path d="M1155 1878 c-19 -20 -24 -29 -12 -25 15 6 17 -2 17 -78 l0 -85 83 2
82 2 -77 3 -78 4 0 79 0 79 73 4 72 3 -72 2 c-73 2 -84 7 -61 30 7 7 10 12 7
12 -2 0 -18 -14 -34 -32z"/>
<path d="M1990 1890 c0 -5 5 -10 11 -10 5 0 7 5 4 10 -3 6 -8 10 -11 10 -2 0
-4 -4 -4 -10z"/>
<path d="M30 1864 c58 -8 150 -8 150 -1 0 4 -39 6 -87 6 -49 -1 -77 -3 -63 -5z"/>
<path d="M192 1865 c3 -3 67 -6 143 -6 76 0 140 3 143 6 3 3 -61 5 -143 5 -82
0 -146 -2 -143 -5z"/>
<path d="M547 1863 c18 -2 50 -2 70 0 21 2 7 4 -32 4 -38 0 -55 -2 -38 -4z"/>
<path d="M994 1862 c6 -10 42 -9 52 1 4 4 -7 7 -25 7 -18 0 -30 -4 -27 -8z"/>
<path d="M1377 1863 c18 -2 50 -2 70 0 21 2 7 4 -32 4 -38 0 -55 -2 -38 -4z"/>
<path d="M1547 1863 c18 -2 50 -2 70 0 21 2 7 4 -32 4 -38 0 -55 -2 -38 -4z"/>
<path d="M1855 1865 c20 -8 183 -10 178 -2 -2 4 -46 7 -96 6 -51 0 -87 -2 -82
-4z"/>
<path d="M2074 1862 c5 -8 66 -4 66 4 0 2 -16 4 -36 4 -19 0 -33 -4 -30 -8z"/>
<path d="M2207 1863 c18 -2 50 -2 70 0 21 2 7 4 -32 4 -38 0 -55 -2 -38 -4z"/>
<path d="M2377 1863 c18 -2 50 -2 70 0 21 2 7 4 -32 4 -38 0 -55 -2 -38 -4z"/>
<path d="M2707 1863 c18 -2 50 -2 70 0 21 2 7 4 -32 4 -38 0 -55 -2 -38 -4z"/>
<path d="M10 1831 c0 -5 5 -13 10 -16 6 -3 10 -2 10 4 0 5 -4 13 -10 16 -5 3
-10 2 -10 -4z"/>
<path d="M333 1780 c0 -36 2 -50 4 -32 2 17 2 47 0 65 -2 17 -4 3 -4 -33z"/>
<path d="M1490 1830 c0 -5 5 -10 10 -10 6 0 10 5 10 10 0 6 -4 10 -10 10 -5 0
-10 -4 -10 -10z"/>
<path d="M1992 1770 l-2 -74 -31 34 -30 35 23 -35 c13 -19 26 -36 31 -38 7 -4
11 -62 3 -62 -8 0 -113 -21 -128 -26 -13 -4 -18 3 -21 28 l-4 33 -1 -33 c-1
-21 -8 -35 -19 -39 -51 -17 -86 -34 -82 -38 3 -2 34 6 69 19 94 34 206 50 308
43 48 -3 98 -9 112 -13 15 -4 22 -3 17 2 -9 9 -14 11 -47 13 -13 1 -20 9 -21
24 -1 16 -2 18 -6 5 -4 -15 -17 -18 -84 -18 l-79 0 0 30 0 29 73 4 72 3 -72 2
-72 2 -4 73 -3 72 -2 -75z"/>
<path d="M2663 1780 c0 -36 2 -50 4 -32 2 17 2 47 0 65 -2 17 -4 3 -4 -33z"/>
<path d="M988 1787 l-18 -42 20 25 c16 20 28 60 18 60 -2 0 -11 -19 -20 -43z"/>
<path d="M1092 1803 c-11 -16 -29 -47 -41 -70 l-21 -43 62 2 63 2 -52 3 c-29
2 -53 7 -53 12 0 4 13 27 28 52 42 66 44 69 38 69 -2 0 -13 -12 -24 -27z"/>
<path d="M2821 1763 c0 -40 2 -73 7 -73 4 0 6 24 4 52 -5 89 -9 97 -11 21z"/>
<path d="M173 1770 c0 -30 2 -43 4 -27 2 15 2 39 0 55 -2 15 -4 2 -4 -28z"/>
<path d="M2070 1801 c5 -11 15 -23 21 -27 6 -3 3 5 -6 20 -20 30 -30 35 -15 7z"/>
<path d="M663 1765 c0 -27 2 -38 4 -22 2 15 2 37 0 50 -2 12 -4 0 -4 -28z"/>
<path d="M10 1776 c0 -31 6 -34 13 -6 3 11 1 23 -4 26 -5 3 -9 -6 -9 -20z"/>
<path d="M1875 1780 c27 -12 43 -12 25 0 -8 5 -22 9 -30 9 -10 0 -8 -3 5 -9z"/>
<path d="M1490 1770 c0 -5 5 -10 10 -10 6 0 10 5 10 10 0 6 -4 10 -10 10 -5 0
-10 -4 -10 -10z"/>
<path d="M1528 1763 c7 -3 16 -2 19 1 4 3 -2 6 -13 5 -11 0 -14 -3 -6 -6z"/>
<path d="M953 1716 c-5 -9 -28 -16 -58 -19 l-50 -3 56 -2 c49 -2 57 1 62 18 6
23 1 26 -10 6z"/>
<path d="M115 1700 l-60 -7 63 -1 c36 -1 62 2 62 8 0 6 -1 9 -2 8 -2 -1 -30
-4 -63 -8z"/>
<path d="M330 1700 c0 -5 5 -10 11 -10 5 0 7 5 4 10 -3 6 -8 10 -11 10 -2 0
-4 -4 -4 -10z"/>
<path d="M1390 1699 l-45 -6 52 -1 c45 -2 54 -6 72 -31 12 -16 21 -34 21 -40
0 -6 5 -11 11 -11 14 0 5 25 -24 60 -28 36 -32 37 -87 29z"/>
<path d="M2585 1700 l-80 -6 83 -2 c49 -1 82 2 82 8 0 6 -1 9 -2 8 -2 -1 -39
-5 -83 -8z"/>
<path d="M18 1693 c6 -2 18 -2 25 0 6 3 1 5 -13 5 -14 0 -19 -2 -12 -5z"/>
<path d="M217 1693 c18 -2 50 -2 70 0 21 2 7 4 -32 4 -38 0 -55 -2 -38 -4z"/>
<path d="M698 1693 c23 -2 61 -2 85 0 23 2 4 4 -43 4 -47 0 -66 -2 -42 -4z"/>
<path d="M2207 1693 c18 -2 50 -2 70 0 21 2 7 4 -32 4 -38 0 -55 -2 -38 -4z"/>
<path d="M2377 1693 c18 -2 50 -2 70 0 21 2 7 4 -32 4 -38 0 -55 -2 -38 -4z"/>
<path d="M2707 1693 c18 -2 50 -2 70 0 21 2 7 4 -32 4 -38 0 -55 -2 -38 -4z"/>
<path d="M2873 1693 c15 -2 37 -2 50 0 12 2 0 4 -28 4 -27 0 -38 -2 -22 -4z"/>
<path d="M833 1615 c0 -38 2 -53 4 -32 2 20 2 52 0 70 -2 17 -4 1 -4 -38z"/>
<path d="M926 1627 c-9 -30 -16 -62 -16 -71 0 -10 -9 -16 -27 -17 l-28 -1 30
-7 30 -6 16 75 c20 89 17 103 -5 27z"/>
<path d="M1163 1615 c0 -38 2 -53 4 -32 2 20 2 52 0 70 -2 17 -4 1 -4 -38z"/>
<path d="M1891 1665 c9 -9 31 -18 50 -20 19 -3 27 -2 19 2 -8 3 -31 12 -50 20
-32 13 -34 13 -19 -2z"/>
<path d="M2823 1615 c0 -38 2 -53 4 -32 2 20 2 52 0 70 -2 17 -4 1 -4 -38z"/>
<path d="M173 1610 c0 -36 2 -50 4 -32 2 17 2 47 0 65 -2 17 -4 3 -4 -33z"/>
<path d="M10 1607 c0 -31 4 -57 10 -57 10 0 6 97 -4 108 -3 3 -6 -20 -6 -51z"/>
<path d="M333 1605 c0 -33 2 -45 4 -27 2 18 2 45 0 60 -2 15 -4 0 -4 -33z"/>
<path d="M1014 1648 c-5 -7 -10 -55 -12 -105 -4 -76 -1 -98 13 -119 18 -29 30
-29 150 -4 34 7 104 10 162 8 56 -2 96 0 90 4 -7 4 -26 8 -44 8 -31 0 -32 1
-36 53 l-3 52 -2 -51 -2 -50 -79 -3 -80 -2 -4 38 -4 38 -1 -42 -2 -42 -57 -7
c-81 -10 -88 -3 -90 92 -2 43 2 92 7 108 11 32 7 46 -6 24z"/>
<path d="M2663 1590 c0 -25 2 -35 4 -22 2 12 2 32 0 45 -2 12 -4 2 -4 -23z"/>
<path d="M1525 1599 c11 -17 70 -39 105 -39 25 0 30 -4 30 -25 0 -25 0 -25 30
-10 37 19 39 28 5 19 -20 -5 -25 -2 -25 13 0 16 -6 18 -35 15 -23 -3 -49 3
-76 17 -22 12 -37 16 -34 10z"/>
<path d="M2242 1570 c0 -14 2 -19 5 -12 2 6 2 18 0 25 -3 6 -5 1 -5 -13z"/>
<path d="M1688 1573 c7 -3 16 -2 19 1 4 3 -2 6 -13 5 -11 0 -14 -3 -6 -6z"/>
<path d="M1990 1539 c0 -11 -9 -28 -20 -37 -18 -16 -66 -122 -54 -122 3 0 16
24 29 54 30 69 65 96 120 96 55 0 66 -15 68 -89 2 -76 17 -81 17 -6 0 94 -28
125 -115 125 -39 0 -45 -3 -45 -21z m83 4 c-13 -2 -35 -2 -50 0 -16 2 -5 4 22
4 28 0 40 -2 28 -4z"/>
<path d="M1929 1536 c-43 -15 -102 -50 -119 -71 -11 -13 -10 -14 3 -9 13 4 17
-3 20 -38 4 -43 4 -43 5 9 2 46 5 53 35 71 18 10 50 22 70 26 20 4 37 11 37
16 0 13 -7 12 -51 -4z"/>
<path d="M10 770 c0 -556 3 -770 11 -770 6 0 9 7 5 15 -3 8 -2 15 2 15 4 0 6
37 4 81 -3 60 0 84 10 90 10 7 10 9 0 9 -9 0 -12 32 -11 133 1 72 -1 142 -5
154 -4 12 -3 24 1 26 4 3 6 42 3 87 -3 45 -1 85 4 91 6 6 6 9 0 9 -5 0 -9 34
-9 75 0 60 3 75 15 75 13 0 13 1 0 10 -11 7 -15 29 -15 85 l0 76 78 -3 c42 -2
77 0 77 5 0 4 -36 7 -80 7 l-80 0 3 73 c1 39 7 75 12 80 7 5 7 10 0 15 -5 4
-10 39 -10 77 l0 70 80 6 80 5 -80 2 -80 2 0 72 c0 53 4 76 15 85 13 11 12 12
-7 13 l-23 0 0 -770z"/>
<path d="M150 1536 c0 -2 7 -6 15 -10 8 -3 15 -1 15 4 0 6 -7 10 -15 10 -8 0
-15 -2 -15 -4z"/>
<path d="M228 1533 c7 -3 16 -2 19 1 4 3 -2 6 -13 5 -11 0 -14 -3 -6 -6z"/>
<path d="M288 1533 c7 -3 16 -2 19 1 4 3 -2 6 -13 5 -11 0 -14 -3 -6 -6z"/>
<path d="M330 1529 c0 -5 5 -7 10 -4 6 3 10 8 10 11 0 2 -4 4 -10 4 -5 0 -10
-5 -10 -11z"/>
<path d="M368 1533 c6 -2 18 -2 25 0 6 3 1 5 -13 5 -14 0 -19 -2 -12 -5z"/>
<path d="M448 1533 c7 -3 16 -2 19 1 4 3 -2 6 -13 5 -11 0 -14 -3 -6 -6z"/>
<path d="M528 1533 c7 -3 16 -2 19 1 4 3 -2 6 -13 5 -11 0 -14 -3 -6 -6z"/>
<path d="M583 1533 c15 -2 37 -2 50 0 12 2 0 4 -28 4 -27 0 -38 -2 -22 -4z"/>
<path d="M660 1529 c0 -5 5 -7 10 -4 6 3 10 8 10 11 0 2 -4 4 -10 4 -5 0 -10
-5 -10 -11z"/>
<path d="M718 1533 c17 -2 47 -2 65 0 17 2 3 4 -33 4 -36 0 -50 -2 -32 -4z"/>
<path d="M1490 1530 c0 -5 5 -10 10 -10 6 0 10 5 10 10 0 6 -4 10 -10 10 -5 0
-10 -4 -10 -10z"/>
<path d="M2214 1446 c0 -165 -62 -304 -191 -433 -57 -57 -90 -81 -165 -117
-111 -53 -182 -69 -303 -68 -166 1 -331 77 -430 198 -62 75 -68 81 -51 52 9
-15 16 -30 16 -33 0 -3 -61 -5 -137 -5 -75 0 -134 -3 -130 -6 3 -3 67 -6 143
-5 l136 1 29 -31 c21 -23 29 -42 31 -73 1 -36 2 -37 5 -8 4 29 17 42 25 25 2
-5 23 -21 48 -38 l45 -29 -30 -7 c-24 -5 -20 -7 23 -8 l52 -1 0 -75 c0 -82 -7
-89 -65 -63 -34 15 -75 -3 -75 -33 0 -12 -3 -19 -7 -15 -9 9 -9 9 -13 101 l-3
70 -6 -75 c-7 -77 5 -170 20 -170 5 0 9 8 9 18 0 9 5 34 11 55 9 32 14 37 39
37 26 0 30 -5 40 -42 6 -24 15 -52 20 -63 8 -19 9 -19 9 4 1 13 6 41 13 62 9
33 15 39 40 39 15 0 28 -1 28 -3 0 -2 -6 -23 -14 -48 -8 -24 -22 -70 -31 -101
-14 -54 -18 -58 -45 -58 -27 0 -29 4 -41 55 -7 30 -15 55 -19 55 -4 0 -13 -25
-20 -56 -13 -53 -15 -55 -43 -52 -29 3 -31 6 -57 102 -27 102 -44 126 -86 126
-13 0 -24 7 -27 18 -4 14 -5 15 -6 1 -1 -20 -28 -30 -101 -39 l-55 -7 47 -1
47 -2 -6 -34 c-3 -18 0 -43 6 -55 16 -29 -13 -68 -54 -74 -28 -4 -28 -4 6 -5
22 -1 43 -10 54 -22 10 -11 24 -20 32 -20 7 0 18 -10 23 -22 6 -16 9 -18 9 -7
1 10 13 19 31 22 16 4 39 16 50 27 24 24 40 26 40 5 0 -7 6 -18 14 -22 8 -4
16 -24 19 -43 l4 -35 1 38 c2 32 5 37 26 37 16 0 27 7 31 20 7 23 25 27 25 6
0 -16 21 -26 55 -26 23 0 24 -4 28 -67 l3 -68 2 71 c1 38 6 74 12 80 5 5 25
52 43 104 33 89 36 95 65 98 29 3 30 1 66 -96 20 -54 36 -102 36 -105 0 -4
-12 -7 -26 -7 -17 0 -28 6 -31 20 -8 28 -78 29 -86 1 -3 -13 -16 -21 -38 -24
l-34 -4 36 -1 c22 -1 42 4 49 13 7 8 23 15 36 15 15 0 24 -6 24 -15 0 -11 12
-15 48 -15 26 0 64 -3 84 -6 36 -6 37 -8 41 -53 l3 -46 2 53 c1 32 6 52 14 52
6 0 22 10 35 22 l23 22 16 -22 c10 -14 26 -22 44 -22 28 0 29 -2 33 -52 l3
-53 2 57 c2 55 3 57 25 49 25 -10 67 3 67 19 0 6 12 10 27 8 22 -2 29 -10 34
-33 4 -16 7 -22 8 -12 1 12 10 17 32 17 22 0 32 5 36 19 4 14 16 21 42 24 l36
4 -41 1 c-40 2 -40 2 -63 65 -12 34 -28 82 -36 107 -7 25 -14 38 -14 28 -1
-11 -7 -15 -22 -11 -11 3 -31 0 -45 -7 -19 -11 -27 -11 -36 -2 -7 7 -20 12
-30 12 -14 0 -18 11 -21 63 l-3 62 -2 -62 -2 -63 -53 0 c-29 0 -58 -5 -65 -12
-20 -20 -42 10 -42 56 l0 42 60 13 c33 8 63 18 66 22 3 5 24 9 47 9 30 0 38 3
27 10 -11 7 -8 11 15 20 17 6 44 22 62 36 18 14 34 23 36 22 1 -2 20 16 42 40
36 41 41 43 89 42 89 -3 114 3 39 9 l-72 6 40 59 39 58 2 -58 1 -59 7 75 c4
41 17 112 31 157 l24 82 45 4 45 3 -48 2 c-28 1 -46 6 -42 12 3 5 6 38 6 73 1
56 4 66 22 75 20 9 20 10 -8 9 l-30 0 -1 -91z m-829 -611 c22 -8 54 -14 72
-15 20 0 36 -7 42 -17 6 -10 11 -13 11 -6 0 7 26 13 75 15 l75 3 0 -41 c0 -39
-2 -42 -32 -47 -66 -11 -113 -25 -91 -26 19 -1 22 -5 17 -31 -4 -16 -3 -37 1
-47 12 -28 14 -44 5 -38 -5 3 -20 36 -35 73 -24 62 -29 68 -57 70 -17 1 -37
-3 -45 -9 -10 -9 -19 -9 -37 1 -13 7 -29 9 -35 6 -8 -5 -11 13 -11 58 0 36 1
66 3 66 1 0 20 -7 42 -15z m-321 -136 c31 -25 32 -30 6 -47 -17 -10 -23 -10
-36 3 -9 8 -20 13 -25 10 -17 -11 -9 -23 23 -34 67 -24 88 -71 48 -111 -24
-24 -86 -27 -118 -4 -27 19 -28 35 -3 51 15 10 22 9 31 -2 14 -17 46 -20 55
-6 3 6 -14 19 -39 29 -53 24 -70 50 -56 87 17 45 72 57 114 24z m623 -3 c27
-24 28 -25 8 -39 -16 -13 -22 -13 -40 -1 -20 13 -35 10 -35 -7 0 -4 16 -13 35
-19 61 -20 82 -73 45 -110 -22 -22 -78 -27 -109 -10 -28 14 -34 41 -14 56 15
10 21 10 35 -3 18 -16 50 -15 48 2 0 6 -14 15 -31 20 -66 22 -83 78 -37 118
28 24 62 21 95 -7z m193 -9 c0 -25 -3 -28 -27 -25 l-28 3 1 -82 1 -83 -29 0
-28 0 0 84 0 83 -25 -5 c-22 -4 -25 -1 -25 24 l0 29 80 1 80 0 0 -29z m139
-70 c18 -50 36 -98 38 -104 4 -9 -5 -13 -25 -13 -22 0 -32 6 -37 20 -5 15 -15
20 -42 20 -26 0 -36 -5 -40 -20 -4 -14 -14 -20 -35 -20 -20 0 -29 4 -25 13 2
6 19 54 38 105 32 89 34 92 64 92 29 0 31 -4 64 -93z m-285 27 c19 -7 23 -104
5 -104 -5 0 -7 5 -4 11 8 12 -14 69 -26 69 -5 0 -9 7 -9 15 0 16 9 19 34 9z
m131 -40 c-19 -64 -25 -65 -25 -6 0 45 3 52 20 52 18 0 18 -2 5 -46z"/>
<path d="M1946 615 c-9 -23 -8 -25 9 -25 17 0 19 9 6 28 -7 11 -10 10 -15 -3z"/>
<path d="M2288 1533 c7 -3 16 -2 19 1 4 3 -2 6 -13 5 -11 0 -14 -3 -6 -6z"/>
<path d="M2320 1530 c0 -5 5 -10 10 -10 6 0 10 5 10 10 0 6 -4 10 -10 10 -5 0
-10 -4 -10 -10z"/>
<path d="M2458 1533 c7 -3 16 -2 19 1 4 3 -2 6 -13 5 -11 0 -14 -3 -6 -6z"/>
<path d="M2538 1533 c12 -2 30 -2 40 0 9 3 -1 5 -23 4 -22 0 -30 -2 -17 -4z"/>
<path d="M2618 1533 c7 -3 16 -2 19 1 4 3 -2 6 -13 5 -11 0 -14 -3 -6 -6z"/>
<path d="M2858 1533 c6 -2 18 -2 25 0 6 3 1 5 -13 5 -14 0 -19 -2 -12 -5z"/>
<path d="M1775 1516 c-82 -20 -115 -38 -115 -63 0 -16 -8 -25 -24 -29 -13 -3
-34 -16 -46 -29 -19 -21 -26 -22 -44 -12 -11 6 -24 10 -28 9 -5 -1 -8 2 -8 8
0 16 -133 4 -171 -15 -70 -36 -103 -72 -124 -133 -11 -31 -20 -37 -71 -54 -77
-25 -236 -34 -325 -18 -38 6 -69 15 -69 20 0 13 100 100 143 123 33 19 37 25
33 51 -4 16 -6 53 -6 84 0 30 -3 53 -6 49 -3 -3 -6 -35 -5 -71 l1 -66 -128 -2
-127 -2 130 -6 130 -5 -35 -22 c-32 -20 -36 -21 -42 -5 -5 12 -7 10 -7 -10 -1
-16 -4 -28 -8 -28 -8 0 -55 -44 -82 -75 -11 -14 -10 -18 5 -30 18 -14 44 -19
72 -16 8 1 13 -17 14 -61 l2 -63 3 59 4 59 46 -7 c25 -3 61 -6 79 -6 33 0 33
0 37 -52 l3 -53 2 58 2 57 33 0 c17 1 50 7 72 15 22 8 41 15 43 15 1 0 2 -32
2 -72 l0 -72 -46 44 c-26 26 -42 36 -35 23 33 -66 188 -161 321 -199 79 -22
231 -24 310 -5 184 45 337 184 406 367 36 96 38 94 -63 95 -56 0 -81 3 -68 8
35 15 57 48 61 93 l3 43 -8 -37 c-14 -68 -67 -107 -148 -110 -26 -1 16 -5 94
-8 l143 -5 -15 -27 c-7 -16 -12 -28 -9 -28 7 0 -29 -85 -40 -92 -6 -4 -11 -11
-11 -15 0 -4 -11 -26 -25 -48 -24 -38 -24 -39 -31 -15 -6 23 -7 22 -8 -8 -1
-47 -43 -81 -101 -83 -43 -2 -44 -2 -11 -8 27 -5 31 -8 20 -17 -16 -13 -47
-24 -55 -21 -3 1 -10 -6 -15 -15 -8 -14 -124 -58 -152 -58 -3 0 -8 28 -10 63
l-3 62 -2 -66 -2 -66 -72 -2 c-49 -2 -74 2 -80 11 -5 9 -10 10 -15 2 -6 -8
-28 -6 -78 5 l-70 16 -3 53 -3 52 40 0 c54 0 119 27 151 64 26 28 29 29 58 17
18 -8 41 -11 51 -8 17 4 21 -1 24 -37 l4 -41 1 41 c2 35 6 43 30 53 54 24 94
67 107 118 7 27 11 61 8 75 -4 20 0 27 14 31 15 4 14 5 -4 6 -12 0 -27 10 -33
22 -14 26 -75 52 -101 44 -14 -5 -19 -2 -19 13 0 15 12 24 47 36 58 20 74 20
67 1 -9 -22 -2 -19 29 15 32 33 32 33 -38 16z m-25 -111 c37 -19 50 -43 50
-95 0 -94 -81 -170 -182 -170 -34 0 -39 2 -33 18 5 9 12 40 18 69 9 44 7 57
-10 92 l-20 40 22 21 c41 39 108 49 155 25z m-199 -53 c59 -66 44 -159 -38
-231 -122 -108 -295 -57 -279 83 12 107 116 190 230 183 51 -3 63 -8 87 -35z
m-331 -192 c0 -35 41 -86 84 -105 30 -13 27 -13 -51 -14 l-83 -1 0 74 c0 63 3
75 18 79 25 5 32 -1 32 -33z m110 -165 c0 -44 -9 -44 -85 0 l-60 34 73 1 72 0
0 -35z"/>
<path d="M1678 1403 c7 -3 16 -2 19 1 4 3 -2 6 -13 5 -11 0 -14 -3 -6 -6z"/>
<path d="M1713 1393 c4 -6 0 -16 -8 -23 -12 -10 -20 -9 -40 4 -30 20 -33 7 -5
-19 18 -17 21 -17 45 -1 27 18 31 31 13 42 -6 4 -8 3 -5 -3z"/>
<path d="M1398 1366 c-23 -17 -23 -29 0 -49 27 -25 78 -22 96 5 14 20 14 24
-1 40 -9 10 -23 18 -32 17 -10 0 -8 -3 7 -9 29 -12 28 -38 -2 -46 -54 -13 -92
26 -43 46 12 5 15 9 7 9 -8 0 -23 -6 -32 -13z"/>
<path d="M173 1445 c0 -38 2 -53 4 -32 2 20 2 52 0 70 -2 17 -4 1 -4 -38z"/>
<path d="M333 1445 c0 -38 2 -53 4 -32 2 20 2 52 0 70 -2 17 -4 1 -4 -38z"/>
<path d="M502 1443 l-2 -72 -157 -4 c-97 -1 -67 -3 77 -3 129 0 203 2 163 3
l-72 4 -4 72 -3 72 -2 -72z"/>
<path d="M833 1445 c0 -38 2 -53 4 -32 2 20 2 52 0 70 -2 17 -4 1 -4 -38z"/>
<path d="M1594 1479 c-51 -41 -55 -46 -18 -24 45 25 81 55 68 55 -6 0 -29 -14
-50 -31z"/>
<path d="M2663 1445 c0 -38 2 -53 4 -32 2 20 2 52 0 70 -2 17 -4 1 -4 -38z"/>
<path d="M2823 1450 c0 -36 2 -50 4 -32 2 17 2 47 0 65 -2 17 -4 3 -4 -33z"/>
<path d="M1607 1449 c-22 -11 -37 -23 -34 -25 5 -5 77 35 77 42 0 6 -1 5 -43
-17z"/>
<path d="M1495 1430 c-3 -5 -1 -10 4 -10 6 0 11 5 11 10 0 6 -2 10 -4 10 -3 0
-8 -4 -11 -10z"/>
<path d="M2377 1363 c18 -2 50 -2 70 0 21 2 7 4 -32 4 -38 0 -55 -2 -38 -4z"/>
<path d="M173 1285 c0 -38 2 -53 4 -32 2 20 2 52 0 70 -2 17 -4 1 -4 -38z"/>
<path d="M504 1200 c0 -85 2 -120 3 -77 2 42 2 112 0 155 -1 42 -3 7 -3 -78z"/>
<path d="M1830 1275 c-5 -81 -5 -93 5 -83 3 3 5 41 3 84 l-3 79 -5 -80z"/>
<path d="M333 1280 c0 -36 2 -50 4 -32 2 17 2 47 0 65 -2 17 -4 3 -4 -33z"/>
<path d="M2663 1280 c0 -36 2 -50 4 -32 2 17 2 47 0 65 -2 17 -4 3 -4 -33z"/>
<path d="M2823 1280 c0 -36 2 -50 4 -32 2 17 2 47 0 65 -2 17 -4 3 -4 -33z"/>
<path d="M1992 1300 c0 -19 2 -27 5 -17 2 9 2 25 0 35 -3 9 -5 1 -5 -18z"/>
<path d="M1992 1240 c0 -14 2 -19 5 -12 2 6 2 18 0 25 -3 6 -5 1 -5 -13z"/>
<path d="M330 1199 c0 -5 5 -7 10 -4 6 3 10 8 10 11 0 2 -4 4 -10 4 -5 0 -10
-5 -10 -11z"/>
<path d="M660 1200 c0 -5 5 -10 10 -10 6 0 10 5 10 10 0 6 -4 10 -10 10 -5 0
-10 -4 -10 -10z"/>
<path d="M2320 1200 c0 -5 5 -10 10 -10 6 0 10 5 10 10 0 6 -4 10 -10 10 -5 0
-10 -4 -10 -10z"/>
<path d="M2650 1200 c0 -5 5 -10 10 -10 6 0 10 5 10 10 0 6 -4 10 -10 10 -5 0
-10 -4 -10 -10z"/>
<path d="M333 1115 c0 -38 2 -53 4 -32 2 20 2 52 0 70 -2 17 -4 1 -4 -38z"/>
<path d="M1833 1115 c0 -38 2 -53 4 -32 2 20 2 52 0 70 -2 17 -4 1 -4 -38z"/>
<path d="M2493 1115 c0 -38 2 -53 4 -32 2 20 2 52 0 70 -2 17 -4 1 -4 -38z"/>
<path d="M2663 1115 c0 -38 2 -53 4 -32 2 20 2 52 0 70 -2 17 -4 1 -4 -38z"/>
<path d="M173 1110 c0 -36 2 -50 4 -32 2 17 2 47 0 65 -2 17 -4 3 -4 -33z"/>
<path d="M2823 1110 c0 -36 2 -50 4 -32 2 17 2 47 0 65 -2 17 -4 3 -4 -33z"/>
<path d="M217 1033 c18 -2 50 -2 70 0 21 2 7 4 -32 4 -38 0 -55 -2 -38 -4z"/>
<path d="M368 1033 c23 -2 61 -2 85 0 23 2 4 4 -43 4 -47 0 -66 -2 -42 -4z"/>
<path d="M547 1033 c18 -2 50 -2 70 0 21 2 7 4 -32 4 -38 0 -55 -2 -38 -4z"/>
<path d="M698 1033 c23 -2 59 -2 80 0 20 2 1 4 -43 4 -44 0 -61 -2 -37 -4z"/>
<path d="M1388 1033 c23 -2 61 -2 85 0 23 2 4 4 -43 4 -47 0 -66 -2 -42 -4z"/>
<path d="M1547 1033 c18 -2 50 -2 70 0 21 2 7 4 -32 4 -38 0 -55 -2 -38 -4z"/>
<path d="M1718 1033 c23 -2 61 -2 85 0 23 2 4 4 -43 4 -47 0 -66 -2 -42 -4z"/>
<path d="M2293 1033 c37 -2 96 -2 130 0 34 2 4 3 -68 3 -71 0 -99 -1 -62 -3z"/>
<path d="M2558 1033 c28 -2 76 -2 105 0 28 2 5 3 -53 3 -58 0 -81 -1 -52 -3z"/>
<path d="M2743 1033 c15 -2 37 -2 50 0 12 2 0 4 -28 4 -27 0 -38 -2 -22 -4z"/>
<path d="M498 940 c-2 -44 0 -80 5 -80 4 0 7 36 7 80 0 44 -2 80 -4 80 -3 0
-6 -36 -8 -80z"/>
<path d="M2493 940 c0 -47 2 -66 4 -42 2 23 2 61 0 85 -2 23 -4 4 -4 -43z"/>
<path d="M173 950 c0 -36 2 -50 4 -32 2 17 2 47 0 65 -2 17 -4 3 -4 -33z"/>
<path d="M1003 960 c0 -30 2 -43 4 -27 2 15 2 39 0 55 -2 15 -4 2 -4 -28z"/>
<path d="M2158 935 c-2 -41 0 -75 5 -75 4 0 7 34 7 75 0 41 -2 75 -4 75 -3 0
-6 -34 -8 -75z"/>
<path d="M2663 950 c0 -36 2 -50 4 -32 2 17 2 47 0 65 -2 17 -4 3 -4 -33z"/>
<path d="M2823 945 c0 -38 2 -53 4 -32 2 20 2 52 0 70 -2 17 -4 1 -4 -38z"/>
<path d="M333 960 c0 -25 2 -35 4 -22 2 12 2 32 0 45 -2 12 -4 2 -4 -23z"/>
<path d="M833 945 c0 -33 2 -45 4 -27 2 18 2 45 0 60 -2 15 -4 0 -4 -33z"/>
<path d="M160 870 c-13 -8 -12 -10 3 -10 9 0 17 5 17 10 0 12 -1 12 -20 0z"/>
<path d="M330 870 c0 -5 5 -10 11 -10 5 0 7 5 4 10 -3 6 -8 10 -11 10 -2 0 -4
-4 -4 -10z"/>
<path d="M665 870 c-3 -5 -1 -10 4 -10 6 0 11 5 11 10 0 6 -2 10 -4 10 -3 0
-8 -4 -11 -10z"/>
<path d="M995 870 c-3 -5 -1 -10 4 -10 6 0 11 5 11 10 0 6 -2 10 -4 10 -3 0
-8 -4 -11 -10z"/>
<path d="M1160 870 c0 -5 5 -10 11 -10 5 0 7 5 4 10 -3 6 -8 10 -11 10 -2 0
-4 -4 -4 -10z"/>
<path d="M1990 870 c0 -5 5 -10 11 -10 5 0 7 5 4 10 -3 6 -8 10 -11 10 -2 0
-4 -4 -4 -10z"/>
<path d="M2655 870 c-3 -5 -1 -10 4 -10 6 0 11 5 11 10 0 6 -2 10 -4 10 -3 0
-8 -4 -11 -10z"/>
<path d="M68 863 c7 -3 16 -2 19 1 4 3 -2 6 -13 5 -11 0 -14 -3 -6 -6z"/>
<path d="M108 863 c7 -3 16 -2 19 1 4 3 -2 6 -13 5 -11 0 -14 -3 -6 -6z"/>
<path d="M543 863 c15 -2 37 -2 50 0 12 2 0 4 -28 4 -27 0 -38 -2 -22 -4z"/>
<path d="M628 863 c7 -3 16 -2 19 1 4 3 -2 6 -13 5 -11 0 -14 -3 -6 -6z"/>
<path d="M738 863 c6 -2 18 -2 25 0 6 3 1 5 -13 5 -14 0 -19 -2 -12 -5z"/>
<path d="M858 863 c7 -3 16 -2 19 1 4 3 -2 6 -13 5 -11 0 -14 -3 -6 -6z"/>
<path d="M898 863 c6 -2 18 -2 25 0 6 3 1 5 -13 5 -14 0 -19 -2 -12 -5z"/>
<path d="M1043 863 c15 -2 39 -2 55 0 15 2 2 4 -28 4 -30 0 -43 -2 -27 -4z"/>
<path d="M1198 863 c7 -3 16 -2 19 1 4 3 -2 6 -13 5 -11 0 -14 -3 -6 -6z"/>
<path d="M2043 863 c15 -2 39 -2 55 0 15 2 2 4 -28 4 -30 0 -43 -2 -27 -4z"/>
<path d="M2193 863 c9 -2 23 -2 30 0 6 3 -1 5 -18 5 -16 0 -22 -2 -12 -5z"/>
<path d="M2393 863 c15 -2 39 -2 55 0 15 2 2 4 -28 4 -30 0 -43 -2 -27 -4z"/>
<path d="M2688 863 c7 -3 16 -2 19 1 4 3 -2 6 -13 5 -11 0 -14 -3 -6 -6z"/>
<path d="M2743 863 c15 -2 37 -2 50 0 12 2 0 4 -28 4 -27 0 -38 -2 -22 -4z"/>
<path d="M2858 863 c6 -2 18 -2 25 0 6 3 1 5 -13 5 -14 0 -19 -2 -12 -5z"/>
<path d="M2908 863 c6 -2 18 -2 25 0 6 3 1 5 -13 5 -14 0 -19 -2 -12 -5z"/>
<path d="M503 785 c0 -38 2 -53 4 -32 2 20 2 52 0 70 -2 17 -4 1 -4 -38z"/>
<path d="M832 825 c0 -16 2 -22 5 -12 2 9 2 23 0 30 -3 6 -5 -1 -5 -18z"/>
<path d="M1003 815 c0 -22 2 -30 4 -17 2 12 2 30 0 40 -3 9 -5 -1 -4 -23z"/>
<path d="M2163 785 c0 -38 2 -53 4 -32 2 20 2 52 0 70 -2 17 -4 1 -4 -38z"/>
<path d="M2494 705 c0 -82 2 -115 3 -72 2 43 2 110 0 150 -1 40 -3 5 -3 -78z"/>
<path d="M173 775 c0 -33 2 -45 4 -27 2 18 2 45 0 60 -2 15 -4 0 -4 -33z"/>
<path d="M333 775 c0 -33 2 -45 4 -27 2 18 2 45 0 60 -2 15 -4 0 -4 -33z"/>
<path d="M1992 800 c0 -19 2 -27 5 -17 2 9 2 25 0 35 -3 9 -5 1 -5 -18z"/>
<path d="M2663 790 c0 -25 2 -35 4 -22 2 12 2 32 0 45 -2 12 -4 2 -4 -23z"/>
<path d="M2823 775 c0 -33 2 -45 4 -27 2 18 2 45 0 60 -2 15 -4 0 -4 -33z"/>
<path d="M832 770 c0 -14 2 -19 5 -12 2 6 2 18 0 25 -3 6 -5 1 -5 -13z"/>
<path d="M1090 720 c0 -5 14 -10 31 -10 17 0 28 4 24 10 -3 6 -17 10 -31 10
-13 0 -24 -4 -24 -10z"/>
<path d="M68 703 c7 -3 16 -2 19 1 4 3 -2 6 -13 5 -11 0 -14 -3 -6 -6z"/>
<path d="M108 703 c7 -3 16 -2 19 1 4 3 -2 6 -13 5 -11 0 -14 -3 -6 -6z"/>
<path d="M150 706 c0 -2 7 -6 15 -10 8 -3 15 -1 15 4 0 6 -7 10 -15 10 -8 0
-15 -2 -15 -4z"/>
<path d="M330 699 c0 -5 5 -7 10 -4 6 3 10 8 10 11 0 2 -4 4 -10 4 -5 0 -10
-5 -10 -11z"/>
<path d="M368 703 c7 -3 16 -2 19 1 4 3 -2 6 -13 5 -11 0 -14 -3 -6 -6z"/>
<path d="M413 703 c9 -2 25 -2 35 0 9 3 1 5 -18 5 -19 0 -27 -2 -17 -5z"/>
<path d="M718 703 c17 -2 47 -2 65 0 17 2 3 4 -33 4 -36 0 -50 -2 -32 -4z"/>
<path d="M2033 703 c9 -2 25 -2 35 0 9 3 1 5 -18 5 -19 0 -27 -2 -17 -5z"/>
<path d="M2593 703 c9 -2 25 -2 35 0 9 3 1 5 -18 5 -19 0 -27 -2 -17 -5z"/>
<path d="M2655 700 c3 -5 8 -10 11 -10 2 0 4 5 4 10 0 6 -5 10 -11 10 -5 0 -7
-4 -4 -10z"/>
<path d="M2743 703 c15 -2 37 -2 50 0 12 2 0 4 -28 4 -27 0 -38 -2 -22 -4z"/>
<path d="M2820 699 c0 -5 5 -7 10 -4 6 3 10 8 10 11 0 2 -4 4 -10 4 -5 0 -10
-5 -10 -11z"/>
<path d="M2858 703 c6 -2 18 -2 25 0 6 3 1 5 -13 5 -14 0 -19 -2 -12 -5z"/>
<path d="M172 650 c0 -19 2 -27 5 -17 2 9 2 25 0 35 -3 9 -5 1 -5 -18z"/>
<path d="M503 605 c0 -44 2 -61 4 -37 2 23 2 59 0 80 -2 20 -4 1 -4 -43z"/>
<path d="M833 620 c0 -36 2 -50 4 -32 2 17 2 47 0 65 -2 17 -4 3 -4 -33z"/>
<path d="M2163 645 c0 -22 2 -30 4 -17 2 12 2 30 0 40 -3 9 -5 -1 -4 -23z"/>
<path d="M2822 645 c0 -16 2 -22 5 -12 2 9 2 23 0 30 -3 6 -5 -1 -5 -18z"/>
<path d="M1447 610 c-4 -15 0 -20 14 -20 17 0 18 3 9 20 -6 11 -12 20 -14 20
-2 0 -6 -9 -9 -20z"/>
<path d="M2162 580 c0 -14 2 -19 5 -12 2 6 2 18 0 25 -3 6 -5 1 -5 -13z"/>
<path d="M171 564 c0 -11 3 -14 6 -6 3 7 2 16 -1 19 -3 4 -6 -2 -5 -13z"/>
<path d="M2820 540 c0 -5 5 -10 11 -10 5 0 7 5 4 10 -3 6 -8 10 -11 10 -2 0
-4 -4 -4 -10z"/>
<path d="M68 533 c7 -3 16 -2 19 1 4 3 -2 6 -13 5 -11 0 -14 -3 -6 -6z"/>
<path d="M158 533 c7 -3 16 -2 19 1 4 3 -2 6 -13 5 -11 0 -14 -3 -6 -6z"/>
<path d="M368 533 c7 -3 16 -2 19 1 4 3 -2 6 -13 5 -11 0 -14 -3 -6 -6z"/>
<path d="M2218 533 c17 -2 47 -2 65 0 17 2 3 4 -33 4 -36 0 -50 -2 -32 -4z"/>
<path d="M2538 533 c12 -2 32 -2 45 0 12 2 2 4 -23 4 -25 0 -35 -2 -22 -4z"/>
<path d="M2618 533 c7 -3 16 -2 19 1 4 3 -2 6 -13 5 -11 0 -14 -3 -6 -6z"/>
<path d="M2713 533 c15 -2 39 -2 55 0 15 2 2 4 -28 4 -30 0 -43 -2 -27 -4z"/>
<path d="M173 460 c0 -30 2 -43 4 -27 2 15 2 39 0 55 -2 15 -4 2 -4 -28z"/>
<path d="M503 450 c0 -36 2 -50 4 -32 2 17 2 47 0 65 -2 17 -4 3 -4 -33z"/>
<path d="M2163 440 c0 -41 2 -58 4 -37 2 20 2 54 0 75 -2 20 -4 3 -4 -38z"/>
<path d="M2493 450 c0 -36 2 -50 4 -32 2 17 2 47 0 65 -2 17 -4 3 -4 -33z"/>
<path d="M2663 475 c0 -22 2 -30 4 -17 2 12 2 30 0 40 -3 9 -5 -1 -4 -23z"/>
<path d="M2822 480 c0 -14 2 -19 5 -12 2 6 2 18 0 25 -3 6 -5 1 -5 -13z"/>
<path d="M832 470 c0 -14 2 -19 5 -12 2 6 2 18 0 25 -3 6 -5 1 -5 -13z"/>
<path d="M832 420 c0 -14 2 -19 5 -12 2 6 2 18 0 25 -3 6 -5 1 -5 -13z"/>
<path d="M1002 415 c0 -16 2 -22 5 -12 2 9 2 23 0 30 -3 6 -5 -1 -5 -18z"/>
<path d="M2662 410 c0 -14 2 -19 5 -12 2 6 2 18 0 25 -3 6 -5 1 -5 -13z"/>
<path d="M2822 410 c0 -14 2 -19 5 -12 2 6 2 18 0 25 -3 6 -5 1 -5 -13z"/>
<path d="M503 285 c0 -38 2 -53 4 -32 2 20 2 52 0 70 -2 17 -4 1 -4 -38z"/>
<path d="M1333 285 c0 -38 2 -53 4 -32 2 20 2 52 0 70 -2 17 -4 1 -4 -38z"/>
<path d="M1663 310 c0 -25 2 -35 4 -22 2 12 2 32 0 45 -2 12 -4 2 -4 -23z"/>
<path d="M2493 285 c0 -38 2 -53 4 -32 2 20 2 52 0 70 -2 17 -4 1 -4 -38z"/>
<path d="M331 324 c0 -11 3 -14 6 -6 3 7 2 16 -1 19 -3 4 -6 -2 -5 -13z"/>
<path d="M1002 310 c0 -19 2 -27 5 -17 2 9 2 25 0 35 -3 9 -5 1 -5 -18z"/>
<path d="M1833 290 c0 -25 2 -35 4 -22 2 12 2 32 0 45 -2 12 -4 2 -4 -23z"/>
<path d="M1162 280 c0 -19 2 -27 5 -17 2 9 2 25 0 35 -3 9 -5 1 -5 -18z"/>
<path d="M172 260 c0 -19 2 -27 5 -17 2 9 2 25 0 35 -3 9 -5 1 -5 -18z"/>
<path d="M831 274 c0 -11 3 -14 6 -6 3 7 2 16 -1 19 -3 4 -6 -2 -5 -13z"/>
<path d="M2162 260 c0 -19 2 -27 5 -17 2 9 2 25 0 35 -3 9 -5 1 -5 -18z"/>
<path d="M2662 270 c0 -14 2 -19 5 -12 2 6 2 18 0 25 -3 6 -5 1 -5 -13z"/>
<path d="M2821 264 c0 -11 3 -14 6 -6 3 7 2 16 -1 19 -3 4 -6 -2 -5 -13z"/>
<path d="M68 203 c7 -3 16 -2 19 1 4 3 -2 6 -13 5 -11 0 -14 -3 -6 -6z"/>
<path d="M158 203 c7 -3 16 -2 19 1 4 3 -2 6 -13 5 -11 0 -14 -3 -6 -6z"/>
<path d="M208 203 c7 -3 16 -2 19 1 4 3 -2 6 -13 5 -11 0 -14 -3 -6 -6z"/>
<path d="M408 203 c7 -3 16 -2 19 1 4 3 -2 6 -13 5 -11 0 -14 -3 -6 -6z"/>
<path d="M488 203 c7 -3 16 -2 19 1 4 3 -2 6 -13 5 -11 0 -14 -3 -6 -6z"/>
<path d="M568 203 c7 -3 16 -2 19 1 4 3 -2 6 -13 5 -11 0 -14 -3 -6 -6z"/>
<path d="M703 203 c9 -2 25 -2 35 0 9 3 1 5 -18 5 -19 0 -27 -2 -17 -5z"/>
<path d="M913 203 c15 -2 37 -2 50 0 12 2 0 4 -28 4 -27 0 -38 -2 -22 -4z"/>
<path d="M1028 203 c7 -3 16 -2 19 1 4 3 -2 6 -13 5 -11 0 -14 -3 -6 -6z"/>
<path d="M1118 203 c6 -2 18 -2 25 0 6 3 1 5 -13 5 -14 0 -19 -2 -12 -5z"/>
<path d="M1228 203 c7 -3 16 -2 19 1 4 3 -2 6 -13 5 -11 0 -14 -3 -6 -6z"/>
<path d="M1358 203 c7 -3 16 -2 19 1 4 3 -2 6 -13 5 -11 0 -14 -3 -6 -6z"/>
<path d="M1403 203 c9 -2 23 -2 30 0 6 3 -1 5 -18 5 -16 0 -22 -2 -12 -5z"/>
<path d="M1458 203 c7 -3 16 -2 19 1 4 3 -2 6 -13 5 -11 0 -14 -3 -6 -6z"/>
<path d="M1568 203 c7 -3 16 -2 19 1 4 3 -2 6 -13 5 -11 0 -14 -3 -6 -6z"/>
<path d="M1660 180 c0 -39 6 -39 12 0 3 17 1 30 -4 30 -4 0 -8 -13 -8 -30z"/>
<path d="M1773 203 c9 -2 23 -2 30 0 6 3 -1 5 -18 5 -16 0 -22 -2 -12 -5z"/>
<path d="M1868 203 c6 -2 18 -2 25 0 6 3 1 5 -13 5 -14 0 -19 -2 -12 -5z"/>
<path d="M2133 203 c9 -2 23 -2 30 0 6 3 -1 5 -18 5 -16 0 -22 -2 -12 -5z"/>
<path d="M2263 203 c9 -2 25 -2 35 0 9 3 1 5 -18 5 -19 0 -27 -2 -17 -5z"/>
<path d="M2418 203 c7 -3 16 -2 19 1 4 3 -2 6 -13 5 -11 0 -14 -3 -6 -6z"/>
<path d="M2458 203 c7 -3 16 -2 19 1 4 3 -2 6 -13 5 -11 0 -14 -3 -6 -6z"/>
<path d="M2528 203 c6 -2 18 -2 25 0 6 3 1 5 -13 5 -14 0 -19 -2 -12 -5z"/>
<path d="M2918 203 c7 -3 16 -2 19 1 4 3 -2 6 -13 5 -11 0 -14 -3 -6 -6z"/>
<path d="M501 174 c0 -11 3 -14 6 -6 3 7 2 16 -1 19 -3 4 -6 -2 -5 -13z"/>
<path d="M1333 155 c0 -22 2 -30 4 -17 2 12 2 30 0 40 -3 9 -5 -1 -4 -23z"/>
<path d="M1661 114 c0 -11 3 -14 6 -6 3 7 2 16 -1 19 -3 4 -6 -2 -5 -13z"/>
<path d="M1331 94 c0 -11 3 -14 6 -6 3 7 2 16 -1 19 -3 4 -6 -2 -5 -13z"/>
<path d="M502 80 c0 -14 2 -19 5 -12 2 6 2 18 0 25 -3 6 -5 1 -5 -13z"/>
<path d="M171 74 c0 -11 3 -14 6 -6 3 7 2 16 -1 19 -3 4 -6 -2 -5 -13z"/>
<path d="M1331 34 c0 -11 3 -14 6 -6 3 7 2 16 -1 19 -3 4 -6 -2 -5 -13z"/>
</g>
</svg>
